<?xml version="1.0" standalone="no"?>
<!DOCTYPE svg PUBLIC "-//W3C//DTD SVG 1.1//EN" "http://www.w3.org/Graphics/SVG/1.1/DTD/svg11.dtd">
<svg width="800" height="600" version="1.1" xmlns="http://www.w3.org/2000/svg">
<rect width="800" height="600" x="0" y="0" style="fill:rgb(238,238,238);stroke:none"/>
<rect width="800" height="600" x="0" y="0" style="fill:rgb(255,255,255);stroke:none"/>
<text x="2" y="566" fill="rgb(0,0,0)" font-family="Arial" font-size="12">0</text>
<text x="2" y="504" fill="rgb(0,0,0)" font-family="Arial" font-size="12">200000</text>
<text x="2" y="442" fill="rgb(0,0,0)" font-family="Arial" font-size="12">400000</text>
<text x="2" y="380" fill="rgb(0,0,0)" font-family="Arial" font-size="12">600000</text>
<text x="2" y="318" fill="rgb(0,0,0)" font-family="Arial" font-size="12">800000</text>
<text x="2" y="256" fill="rgb(0,0,0)" font-family="Arial" font-size="12">1000000</text>
<text x="2" y="194" fill="rgb(0,0,0)" font-family="Arial" font-size="12">1200000</text>
<text x="2" y="131" fill="rgb(0,0,0)" font-family="Arial" font-size="12">1400000</text>
<text x="2" y="69" fill="rgb(0,0,0)" font-family="Arial" font-size="12">1600000</text>
<text x="299" y="30" fill="rgb(0,0,0)" font-family="Arial" font-size="12">Quality score distribution over all sequences</text>
<line x1="54" y1="560" x2="790" y2="560" stroke="rgb(0,0,0)" stroke-width="1"/>
<line x1="54" y1="560" x2="54" y2="40" stroke="rgb(0,0,0)" stroke-width="1"/>
<text x="295" y="595" fill="rgb(0,0,0)" font-family="Arial" font-size="12">Mean Sequence Quality (Phred Score)</text>
<text x="60" y="575" fill="rgb(0,0,0)" font-family="Arial" font-size="12">2</text>
<rect width="18" height="520" x="72" y="40" style="fill:rgb(230,230,230);stroke:none"/>
<text x="78" y="575" fill="rgb(0,0,0)" font-family="Arial" font-size="12">3</text>
<text x="96" y="575" fill="rgb(0,0,0)" font-family="Arial" font-size="12">4</text>
<rect width="18" height="520" x="108" y="40" style="fill:rgb(230,230,230);stroke:none"/>
<text x="114" y="575" fill="rgb(0,0,0)" font-family="Arial" font-size="12">5</text>
<text x="132" y="575" fill="rgb(0,0,0)" font-family="Arial" font-size="12">6</text>
<rect width="18" height="520" x="144" y="40" style="fill:rgb(230,230,230);stroke:none"/>
<text x="150" y="575" fill="rgb(0,0,0)" font-family="Arial" font-size="12">7</text>
<text x="168" y="575" fill="rgb(0,0,0)" font-family="Arial" font-size="12">8</text>
<rect width="18" height="520" x="180" y="40" style="fill:rgb(230,230,230);stroke:none"/>
<text x="186" y="575" fill="rgb(0,0,0)" font-family="Arial" font-size="12">9</text>
<text x="200" y="575" fill="rgb(0,0,0)" font-family="Arial" font-size="12">10</text>
<rect width="18" height="520" x="216" y="40" style="fill:rgb(230,230,230);stroke:none"/>
<text x="236" y="575" fill="rgb(0,0,0)" font-family="Arial" font-size="12">12</text>
<rect width="18" height="520" x="252" y="40" style="fill:rgb(230,230,230);stroke:none"/>
<text x="272" y="575" fill="rgb(0,0,0)" font-family="Arial" font-size="12">14</text>
<rect width="18" height="520" x="288" y="40" style="fill:rgb(230,230,230);stroke:none"/>
<text x="308" y="575" fill="rgb(0,0,0)" font-family="Arial" font-size="12">16</text>
<rect width="18" height="520" x="324" y="40" style="fill:rgb(230,230,230);stroke:none"/>
<text x="344" y="575" fill="rgb(0,0,0)" font-family="Arial" font-size="12">18</text>
<rect width="18" height="520" x="360" y="40" style="fill:rgb(230,230,230);stroke:none"/>
<text x="380" y="575" fill="rgb(0,0,0)" font-family="Arial" font-size="12">20</text>
<rect width="18" height="520" x="396" y="40" style="fill:rgb(230,230,230);stroke:none"/>
<text x="416" y="575" fill="rgb(0,0,0)" font-family="Arial" font-size="12">22</text>
<rect width="18" height="520" x="432" y="40" style="fill:rgb(230,230,230);stroke:none"/>
<text x="452" y="575" fill="rgb(0,0,0)" font-family="Arial" font-size="12">24</text>
<rect width="18" height="520" x="468" y="40" style="fill:rgb(230,230,230);stroke:none"/>
<text x="488" y="575" fill="rgb(0,0,0)" font-family="Arial" font-size="12">26</text>
<rect width="18" height="520" x="504" y="40" style="fill:rgb(230,230,230);stroke:none"/>
<text x="524" y="575" fill="rgb(0,0,0)" font-family="Arial" font-size="12">28</text>
<rect width="18" height="520" x="540" y="40" style="fill:rgb(230,230,230);stroke:none"/>
<text x="560" y="575" fill="rgb(0,0,0)" font-family="Arial" font-size="12">30</text>
<rect width="18" height="520" x="576" y="40" style="fill:rgb(230,230,230);stroke:none"/>
<text x="596" y="575" fill="rgb(0,0,0)" font-family="Arial" font-size="12">32</text>
<rect width="18" height="520" x="612" y="40" style="fill:rgb(230,230,230);stroke:none"/>
<text x="632" y="575" fill="rgb(0,0,0)" font-family="Arial" font-size="12">34</text>
<rect width="18" height="520" x="648" y="40" style="fill:rgb(230,230,230);stroke:none"/>
<text x="668" y="575" fill="rgb(0,0,0)" font-family="Arial" font-size="12">36</text>
<rect width="18" height="520" x="684" y="40" style="fill:rgb(230,230,230);stroke:none"/>
<text x="704" y="575" fill="rgb(0,0,0)" font-family="Arial" font-size="12">38</text>
<rect width="18" height="520" x="720" y="40" style="fill:rgb(230,230,230);stroke:none"/>
<text x="740" y="575" fill="rgb(0,0,0)" font-family="Arial" font-size="12">40</text>
<line x1="54" y1="560" x2="790" y2="560" stroke="rgb(180,180,180)" stroke-width="1"/>
<line x1="54" y1="498" x2="790" y2="498" stroke="rgb(180,180,180)" stroke-width="1"/>
<line x1="54" y1="436" x2="790" y2="436" stroke="rgb(180,180,180)" stroke-width="1"/>
<line x1="54" y1="374" x2="790" y2="374" stroke="rgb(180,180,180)" stroke-width="1"/>
<line x1="54" y1="312" x2="790" y2="312" stroke="rgb(180,180,180)" stroke-width="1"/>
<line x1="54" y1="250" x2="790" y2="250" stroke="rgb(180,180,180)" stroke-width="1"/>
<line x1="54" y1="188" x2="790" y2="188" stroke="rgb(180,180,180)" stroke-width="1"/>
<line x1="54" y1="125" x2="790" y2="125" stroke="rgb(180,180,180)" stroke-width="1"/>
<line x1="54" y1="63" x2="790" y2="63" stroke="rgb(180,180,180)" stroke-width="1"/>
<line x1="63" y1="560" x2="81" y2="560" stroke="rgb(136,34,85)" stroke-width="1"/>
<line x1="81" y1="560" x2="99" y2="560" stroke="rgb(136,34,85)" stroke-width="1"/>
<line x1="99" y1="560" x2="117" y2="560" stroke="rgb(136,34,85)" stroke-width="1"/>
<line x1="117" y1="560" x2="135" y2="560" stroke="rgb(136,34,85)" stroke-width="1"/>
<line x1="135" y1="560" x2="153" y2="560" stroke="rgb(136,34,85)" stroke-width="1"/>
<line x1="153" y1="560" x2="171" y2="560" stroke="rgb(136,34,85)" stroke-width="1"/>
<line x1="171" y1="560" x2="189" y2="560" stroke="rgb(136,34,85)" stroke-width="1"/>
<line x1="189" y1="560" x2="207" y2="560" stroke="rgb(136,34,85)" stroke-width="1"/>
<line x1="207" y1="560" x2="225" y2="560" stroke="rgb(136,34,85)" stroke-width="1"/>
<line x1="225" y1="560" x2="243" y2="560" stroke="rgb(136,34,85)" stroke-width="1"/>
<line x1="243" y1="560" x2="261" y2="560" stroke="rgb(136,34,85)" stroke-width="1"/>
<line x1="261" y1="560" x2="279" y2="560" stroke="rgb(136,34,85)" stroke-width="1"/>
<line x1="279" y1="560" x2="297" y2="560" stroke="rgb(136,34,85)" stroke-width="1"/>
<line x1="297" y1="560" x2="315" y2="560" stroke="rgb(136,34,85)" stroke-width="1"/>
<line x1="315" y1="560" x2="333" y2="560" stroke="rgb(136,34,85)" stroke-width="1"/>
<line x1="333" y1="560" x2="351" y2="560" stroke="rgb(136,34,85)" stroke-width="1"/>
<line x1="351" y1="560" x2="369" y2="560" stroke="rgb(136,34,85)" stroke-width="1"/>
<line x1="369" y1="560" x2="387" y2="560" stroke="rgb(136,34,85)" stroke-width="1"/>
<line x1="387" y1="560" x2="405" y2="560" stroke="rgb(136,34,85)" stroke-width="1"/>
<line x1="405" y1="560" x2="423" y2="560" stroke="rgb(136,34,85)" stroke-width="1"/>
<line x1="423" y1="560" x2="441" y2="560" stroke="rgb(136,34,85)" stroke-width="1"/>
<line x1="441" y1="560" x2="459" y2="559" stroke="rgb(136,34,85)" stroke-width="1"/>
<line x1="459" y1="559" x2="477" y2="558" stroke="rgb(136,34,85)" stroke-width="1"/>
<line x1="477" y1="558" x2="495" y2="556" stroke="rgb(136,34,85)" stroke-width="1"/>
<line x1="495" y1="556" x2="513" y2="553" stroke="rgb(136,34,85)" stroke-width="1"/>
<line x1="513" y1="553" x2="531" y2="549" stroke="rgb(136,34,85)" stroke-width="1"/>
<line x1="531" y1="549" x2="549" y2="543" stroke="rgb(136,34,85)" stroke-width="1"/>
<line x1="549" y1="543" x2="567" y2="534" stroke="rgb(136,34,85)" stroke-width="1"/>
<line x1="567" y1="534" x2="585" y2="522" stroke="rgb(136,34,85)" stroke-width="1"/>
<line x1="585" y1="522" x2="603" y2="506" stroke="rgb(136,34,85)" stroke-width="1"/>
<line x1="603" y1="506" x2="621" y2="480" stroke="rgb(136,34,85)" stroke-width="1"/>
<line x1="621" y1="480" x2="639" y2="439" stroke="rgb(136,34,85)" stroke-width="1"/>
<line x1="639" y1="439" x2="657" y2="376" stroke="rgb(136,34,85)" stroke-width="1"/>
<line x1="657" y1="376" x2="675" y2="282" stroke="rgb(136,34,85)" stroke-width="1"/>
<line x1="675" y1="282" x2="693" y2="155" stroke="rgb(136,34,85)" stroke-width="1"/>
<line x1="693" y1="155" x2="711" y2="40" stroke="rgb(136,34,85)" stroke-width="1"/>
<line x1="711" y1="40" x2="729" y2="153" stroke="rgb(136,34,85)" stroke-width="1"/>
<line x1="729" y1="153" x2="747" y2="524" stroke="rgb(136,34,85)" stroke-width="1"/>
<rect width="156" height="23" x="634" y="40" style="fill:rgb(255,255,255);stroke:none"/>
<rect width="156" height="23" x="634" y="40" rx="0" ry="0" style="fill:none;stroke-width:1;stroke:rgb(192,192,192)"/>
<text x="637" y="55" fill="rgb(136,34,85)" font-family="Arial" font-size="12" font-weight="bold">Average Quality per read</text>
</svg>
