<?xml version="1.0" standalone="no"?>
<!DOCTYPE svg PUBLIC "-//W3C//DTD SVG 1.1//EN" "http://www.w3.org/Graphics/SVG/1.1/DTD/svg11.dtd">
<svg width="800" height="600" version="1.1" xmlns="http://www.w3.org/2000/svg">
<rect width="800" height="600" x="0" y="0" style="fill:rgb(238,238,238);stroke:none"/>
<rect width="800" height="600" x="0" y="0" style="fill:rgb(255,255,255);stroke:none"/>
<text x="2" y="566" fill="rgb(0,0,0)" font-family="Arial" font-size="12">0</text>
<text x="2" y="510" fill="rgb(0,0,0)" font-family="Arial" font-size="12">500000</text>
<text x="2" y="453" fill="rgb(0,0,0)" font-family="Arial" font-size="12">1000000</text>
<text x="2" y="397" fill="rgb(0,0,0)" font-family="Arial" font-size="12">1500000</text>
<text x="2" y="340" fill="rgb(0,0,0)" font-family="Arial" font-size="12">2000000</text>
<text x="2" y="284" fill="rgb(0,0,0)" font-family="Arial" font-size="12">2500000</text>
<text x="2" y="227" fill="rgb(0,0,0)" font-family="Arial" font-size="12">3000000</text>
<text x="2" y="170" fill="rgb(0,0,0)" font-family="Arial" font-size="12">3500000</text>
<text x="2" y="114" fill="rgb(0,0,0)" font-family="Arial" font-size="12">4000000</text>
<text x="2" y="57" fill="rgb(0,0,0)" font-family="Arial" font-size="12">4500000</text>
<text x="279" y="30" fill="rgb(0,0,0)" font-family="Arial" font-size="12">Distribution of sequence lengths over all sequences</text>
<line x1="54" y1="560" x2="790" y2="560" stroke="rgb(0,0,0)" stroke-width="1"/>
<line x1="54" y1="560" x2="54" y2="40" stroke="rgb(0,0,0)" stroke-width="1"/>
<text x="340" y="595" fill="rgb(0,0,0)" font-family="Arial" font-size="12">Sequence Length (bp)</text>
<text x="66" y="575" fill="rgb(0,0,0)" font-family="Arial" font-size="12">34</text>
<rect width="38" height="520" x="92" y="40" style="fill:rgb(230,230,230);stroke:none"/>
<text x="104" y="575" fill="rgb(0,0,0)" font-family="Arial" font-size="12">35</text>
<text x="142" y="575" fill="rgb(0,0,0)" font-family="Arial" font-size="12">36</text>
<rect width="38" height="520" x="168" y="40" style="fill:rgb(230,230,230);stroke:none"/>
<text x="180" y="575" fill="rgb(0,0,0)" font-family="Arial" font-size="12">37</text>
<text x="218" y="575" fill="rgb(0,0,0)" font-family="Arial" font-size="12">38</text>
<rect width="38" height="520" x="244" y="40" style="fill:rgb(230,230,230);stroke:none"/>
<text x="256" y="575" fill="rgb(0,0,0)" font-family="Arial" font-size="12">39</text>
<text x="294" y="575" fill="rgb(0,0,0)" font-family="Arial" font-size="12">40</text>
<rect width="38" height="520" x="320" y="40" style="fill:rgb(230,230,230);stroke:none"/>
<text x="332" y="575" fill="rgb(0,0,0)" font-family="Arial" font-size="12">41</text>
<text x="370" y="575" fill="rgb(0,0,0)" font-family="Arial" font-size="12">42</text>
<rect width="38" height="520" x="396" y="40" style="fill:rgb(230,230,230);stroke:none"/>
<text x="408" y="575" fill="rgb(0,0,0)" font-family="Arial" font-size="12">43</text>
<text x="446" y="575" fill="rgb(0,0,0)" font-family="Arial" font-size="12">44</text>
<rect width="38" height="520" x="472" y="40" style="fill:rgb(230,230,230);stroke:none"/>
<text x="484" y="575" fill="rgb(0,0,0)" font-family="Arial" font-size="12">45</text>
<text x="522" y="575" fill="rgb(0,0,0)" font-family="Arial" font-size="12">46</text>
<rect width="38" height="520" x="548" y="40" style="fill:rgb(230,230,230);stroke:none"/>
<text x="560" y="575" fill="rgb(0,0,0)" font-family="Arial" font-size="12">47</text>
<text x="598" y="575" fill="rgb(0,0,0)" font-family="Arial" font-size="12">48</text>
<rect width="38" height="520" x="624" y="40" style="fill:rgb(230,230,230);stroke:none"/>
<text x="636" y="575" fill="rgb(0,0,0)" font-family="Arial" font-size="12">49</text>
<text x="674" y="575" fill="rgb(0,0,0)" font-family="Arial" font-size="12">50</text>
<rect width="38" height="520" x="700" y="40" style="fill:rgb(230,230,230);stroke:none"/>
<text x="712" y="575" fill="rgb(0,0,0)" font-family="Arial" font-size="12">51</text>
<text x="750" y="575" fill="rgb(0,0,0)" font-family="Arial" font-size="12">52</text>
<line x1="54" y1="560" x2="790" y2="560" stroke="rgb(180,180,180)" stroke-width="1"/>
<line x1="54" y1="504" x2="790" y2="504" stroke="rgb(180,180,180)" stroke-width="1"/>
<line x1="54" y1="447" x2="790" y2="447" stroke="rgb(180,180,180)" stroke-width="1"/>
<line x1="54" y1="391" x2="790" y2="391" stroke="rgb(180,180,180)" stroke-width="1"/>
<line x1="54" y1="334" x2="790" y2="334" stroke="rgb(180,180,180)" stroke-width="1"/>
<line x1="54" y1="278" x2="790" y2="278" stroke="rgb(180,180,180)" stroke-width="1"/>
<line x1="54" y1="221" x2="790" y2="221" stroke="rgb(180,180,180)" stroke-width="1"/>
<line x1="54" y1="164" x2="790" y2="164" stroke="rgb(180,180,180)" stroke-width="1"/>
<line x1="54" y1="108" x2="790" y2="108" stroke="rgb(180,180,180)" stroke-width="1"/>
<line x1="54" y1="51" x2="790" y2="51" stroke="rgb(180,180,180)" stroke-width="1"/>
<line x1="73" y1="560" x2="111" y2="560" stroke="rgb(136,34,85)" stroke-width="1"/>
<line x1="111" y1="560" x2="149" y2="560" stroke="rgb(136,34,85)" stroke-width="1"/>
<line x1="149" y1="560" x2="187" y2="560" stroke="rgb(136,34,85)" stroke-width="1"/>
<line x1="187" y1="560" x2="225" y2="560" stroke="rgb(136,34,85)" stroke-width="1"/>
<line x1="225" y1="560" x2="263" y2="560" stroke="rgb(136,34,85)" stroke-width="1"/>
<line x1="263" y1="560" x2="301" y2="560" stroke="rgb(136,34,85)" stroke-width="1"/>
<line x1="301" y1="560" x2="339" y2="560" stroke="rgb(136,34,85)" stroke-width="1"/>
<line x1="339" y1="560" x2="377" y2="560" stroke="rgb(136,34,85)" stroke-width="1"/>
<line x1="377" y1="560" x2="415" y2="560" stroke="rgb(136,34,85)" stroke-width="1"/>
<line x1="415" y1="560" x2="453" y2="560" stroke="rgb(136,34,85)" stroke-width="1"/>
<line x1="453" y1="560" x2="491" y2="560" stroke="rgb(136,34,85)" stroke-width="1"/>
<line x1="491" y1="560" x2="529" y2="559" stroke="rgb(136,34,85)" stroke-width="1"/>
<line x1="529" y1="559" x2="567" y2="557" stroke="rgb(136,34,85)" stroke-width="1"/>
<line x1="567" y1="557" x2="605" y2="545" stroke="rgb(136,34,85)" stroke-width="1"/>
<line x1="605" y1="545" x2="643" y2="506" stroke="rgb(136,34,85)" stroke-width="1"/>
<line x1="643" y1="506" x2="681" y2="355" stroke="rgb(136,34,85)" stroke-width="1"/>
<line x1="681" y1="355" x2="719" y2="40" stroke="rgb(136,34,85)" stroke-width="1"/>
<line x1="719" y1="40" x2="757" y2="560" stroke="rgb(136,34,85)" stroke-width="1"/>
<rect width="110" height="23" x="680" y="40" style="fill:rgb(255,255,255);stroke:none"/>
<rect width="110" height="23" x="680" y="40" rx="0" ry="0" style="fill:none;stroke-width:1;stroke:rgb(192,192,192)"/>
<text x="683" y="55" fill="rgb(136,34,85)" font-family="Arial" font-size="12" font-weight="bold">Sequence Length</text>
</svg>
